<svg xmlns="http://www.w3.org/2000/svg" xmlns:xlink="http://www.w3.org/1999/xlink" width="500" zoomAndPan="magnify" viewBox="0 0 375 374.999991" height="500" preserveAspectRatio="xMidYMid meet" version="1.0"><defs><clipPath id="27d2dd8108"><path d="M 160 10 L 269 10 L 269 286 L 160 286 Z M 160 10 " clip-rule="nonzero"/></clipPath><clipPath id="49bdfaac2e"><path d="M 394.738281 261.636719 L 106.589844 406.472656 L -19.71875 155.179688 L 268.429688 10.347656 Z M 394.738281 261.636719 " clip-rule="nonzero"/></clipPath><clipPath id="ffca2b7f50"><path d="M 394.738281 261.636719 L 106.589844 406.472656 L -19.71875 155.179688 L 268.429688 10.347656 Z M 394.738281 261.636719 " clip-rule="nonzero"/></clipPath><clipPath id="71f31be680"><path d="M 109 134 L 260 134 L 260 306 L 109 306 Z M 109 134 " clip-rule="nonzero"/></clipPath><clipPath id="b13c2e30c6"><path d="M 394.738281 261.636719 L 106.589844 406.472656 L -19.71875 155.179688 L 268.429688 10.347656 Z M 394.738281 261.636719 " clip-rule="nonzero"/></clipPath><clipPath id="2f9eab0020"><path d="M 394.738281 261.636719 L 106.589844 406.472656 L -19.71875 155.179688 L 268.429688 10.347656 Z M 394.738281 261.636719 " clip-rule="nonzero"/></clipPath><clipPath id="d4f2374d0e"><path d="M 82 222 L 287 222 L 287 320 L 82 320 Z M 82 222 " clip-rule="nonzero"/></clipPath><clipPath id="911c15dc87"><path d="M 394.738281 261.636719 L 106.589844 406.472656 L -19.71875 155.179688 L 268.429688 10.347656 Z M 394.738281 261.636719 " clip-rule="nonzero"/></clipPath><clipPath id="2c354b7a71"><path d="M 394.738281 261.636719 L 106.589844 406.472656 L -19.71875 155.179688 L 268.429688 10.347656 Z M 394.738281 261.636719 " clip-rule="nonzero"/></clipPath></defs><g clip-path="url(#27d2dd8108)"><g clip-path="url(#49bdfaac2e)"><g clip-path="url(#ffca2b7f50)"><path fill="#e6dad0" d="M 268.183594 10.425781 C 155.265625 93.5625 111.632812 182.535156 234.933594 285.75 C 173.902344 201 202.382812 107.546875 268.183594 10.425781 Z M 268.183594 10.425781 " fill-opacity="1" fill-rule="evenodd"/></g></g></g><g clip-path="url(#71f31be680)"><g clip-path="url(#b13c2e30c6)"><g clip-path="url(#2f9eab0020)"><path fill="#e6dad0" d="M 259.046875 305.304688 C 121.628906 273.007812 72.21875 218.476562 139.65625 134.46875 C 131.761719 211.355469 167.238281 270.011719 259.046875 305.304688 Z M 259.046875 305.304688 " fill-opacity="1" fill-rule="evenodd"/></g></g></g><g clip-path="url(#d4f2374d0e)"><g clip-path="url(#911c15dc87)"><g clip-path="url(#2c354b7a71)"><path fill="#e6dad0" d="M 286.734375 315.925781 C 175.652344 331.210938 54.949219 302.835938 88.152344 222.675781 C 116.097656 290.878906 193.605469 311.015625 286.734375 315.925781 Z M 286.734375 315.925781 " fill-opacity="1" fill-rule="evenodd"/></g></g></g></svg>